# xmcd CD database file
#
# Track frame offsets:
#	150
#	19035
#	38586
#	53830
#	73152
#	91964
#	108429
#	132292
#	153467
#	169787
#	187307
#	201804
#	220908
#	231920
#	248581
#
# Disc length: 3595 seconds
#
# Revision: 0
# Processed by: cddbd v1.5.2PL0 Copyright (c) Steve Scherf et al.
# Submitted via: CDex 1.51
#
DISCID=d10e090f
DTITLE=Andy Baylor - Possum Stole The Pumpkin - Disk 2
DYEAR=2009
DGENRE=Country
TTITLE0=West Melbourne Waltz
TTITLE1=Amade played Accordion
TTITLE2=Possum stole the Pumpkin
TTITLE3=Charley's Waltz
TTITLE4=Denis Close's Two-Step (Tambourine Two-Step)
TTITLE5=French Island
TTITLE6=Portland Two-Step
TTITLE7=Amamoor Waltz
TTITLE8=Andy's Creole One-Step (no.2)
TTITLE9=Motorboat Stomp (Cook's River Two-Step)
TTITLE10=Uncle Bill's Old Hat
TTITLE11=Rosalie's Marurka
TTITLE12=Sophies's Two-Step
TTITLE13=Womboota
TTITLE14=Kipps Horn's Favourite Two-Step
EXTD=YEAR: 2009
EXTT0=
EXTT1=
EXTT2=
EXTT3=
EXTT4=
EXTT5=
EXTT6=
EXTT7=
EXTT8=
EXTT9=
EXTT10=
EXTT11=
EXTT12=
EXTT13=
EXTT14=
PLAYORDER=
